# xmcd
#
# Track frame offsets:
#	150
#	16168
#	33571
#	48088
#	68468
#	83931
#	98907
#	112599
#	131890
#	148233
#	164056
#	179528
#	195363
#	207959
#	225267
#	233633
#	252834
#	268557
#	285032
#	294084
#	313089
#	328465
#	339904
#
# Disc length: 4721 seconds
#
# Revision: 0
# Processed by: cddbd v1.5.1PL0 Copyright (c) Steve Scherf et al.
# Submitted via: audiograbber 1.83.01
#
DISCID=3b126f17
DTITLE=TO DHMOTIKO TRAGOUDI EINAI EDW  мо3 - Cd2
DYEAR=1900
DGENRE=дглотийа
TTITLE0=бкавохамасгс
TTITLE1=емас агтос
TTITLE2=ма 'ва тг ваяг соу агте
TTITLE3=о тяитсилпидас
TTITLE4=то жеццаяайи
TTITLE5=то кемге ои йоуййои ста боума
TTITLE6=та меиата
TTITLE7=апоье лауяолата лоу
TTITLE8=есеис боума лоу олояжа
TTITLE9=г лакалы
TTITLE10=ле лаяаме г подиа соу
TTITLE11=ма валгкымам та боума
TTITLE12=пеяа ейеи стгм аето яавг
TTITLE13=ма 'ва меяатфи ма 'яивма
TTITLE14=бкава апо то йаяпемгси
TTITLE15=циаммг лоу то ламтгки соу
TTITLE16=та лациа
TTITLE17=йомтоука келомиа
TTITLE18=лгко лоу йоййимо
TTITLE19=оса боума
TTITLE20=сам коукоуди тоу боумоу
TTITLE21=т' аспяа ма бакеис сглеяа
TTITLE22=йояг поу пас стом потало
EXTD=
EXTT0=
EXTT1=
EXTT2=
EXTT3=
EXTT4=
EXTT5=
EXTT6=
EXTT7=
EXTT8=
EXTT9=
EXTT10=
EXTT11=
EXTT12=
EXTT13=
EXTT14=
EXTT15=
EXTT16=
EXTT17=
EXTT18=
EXTT19=
EXTT20=
EXTT21=
EXTT22=
PLAYORDER=
